<svg xmlns="http://www.w3.org/2000/svg" width="33.382" height="33.403" viewBox="0 0 33.382 33.403">
  <path id="Path_5" data-name="Path 5" d="M1353.585,21.591a16.637,16.637,0,0,0-6.347-3.981,9.656,9.656,0,1,0-10.927,0,16.73,16.73,0,0,0-11.227,15.171.6.6,0,0,0,.6.62h1.42a.6.6,0,0,0,.595-.571,14.092,14.092,0,0,1,28.161,0,.6.6,0,0,0,.595.571h1.42a.6.6,0,0,0,.6-.62A16.585,16.585,0,0,0,1353.585,21.591ZM1334.737,9.983a7.046,7.046,0,1,1,6.707,6.708A7.053,7.053,0,0,1,1334.737,9.983Z" transform="translate(-1325.084 0.003)" fill="#020203"/>
</svg>
