<svg id="Group_3" data-name="Group 3" xmlns="http://www.w3.org/2000/svg" xmlns:xlink="http://www.w3.org/1999/xlink" width="38.006" height="33.404" viewBox="0 0 38.006 33.404">
  <defs>
    <clipPath id="clip-path">
      <rect id="Rectangle_4" data-name="Rectangle 4" width="38.006" height="33.404"/>
    </clipPath>
  </defs>
  <g id="Group_2" data-name="Group 2">
    <g id="Group_1" data-name="Group 1" clip-path="url(#clip-path)">
      <path id="Path_1" data-name="Path 1" d="M625.6,22.269H645.8a1.114,1.114,0,0,0,1.07-.808l4.454-15.588a1.114,1.114,0,0,0-1.071-1.419H623.037l-.8-3.582A1.113,1.113,0,0,0,621.154,0h-6.681a1.113,1.113,0,1,0,0,2.227h5.788c.141.635,3.809,17.141,4.02,18.091a3.34,3.34,0,0,0,1.327,6.405H645.8a1.113,1.113,0,1,0,0-2.227H625.609a1.113,1.113,0,0,1,0-2.227ZM648.776,6.681l-3.818,13.361H626.5L623.532,6.681Zm0,0" transform="translate(-613.36)"/>
    </g>
  </g>
  <path id="Path_2" data-name="Path 2" d="M763.36,363.34A3.34,3.34,0,1,0,766.7,360a3.344,3.344,0,0,0-3.34,3.34Zm3.34-1.113a1.113,1.113,0,1,1-1.114,1.113,1.115,1.115,0,0,1,1.114-1.113Zm0,0" transform="translate(-752.225 -333.277)"/>
  <path id="Path_3" data-name="Path 3" d="M975.36,363.34A3.34,3.34,0,1,0,978.7,360a3.344,3.344,0,0,0-3.34,3.34Zm3.34-1.113a1.113,1.113,0,1,1-1.113,1.113,1.115,1.115,0,0,1,1.113-1.113Zm0,0" transform="translate(-948.489 -333.277)"/>
</svg>
